<svg width="1440" height="900" viewBox="0 0 1440 900" version="1.1" xmlns="http://www.w3.org/2000/svg" xmlns:xlink="http://www.w3.org/1999/xlink">
<title>Calculator</title>
<desc>Created using Figma</desc>
<g id="Canvas" transform="translate(993 633)">
<clipPath id="clip-0" clip-rule="evenodd">
<path d="M -993 -633L 447 -633L 447 267L -993 267L -993 -633Z" fill="#FFFFFF"/>
</clipPath>
<g id="Calculator" clip-path="url(#clip-0)">
<path d="M -993 -633L 447 -633L 447 267L -993 267L -993 -633Z" fill="#FFFFFF"/>
<g id="Iphone">
<g id="Rectangle 2">
<use xlink:href="#path0_fill" transform="translate(-993 -633)" fill="url(#paint0_linear)"/>
</g>
<g id="Iphone Bg">
<g id="g10">
<g id="g142">
<g id="g144">
<g id="g190">
<g id="path192">
<use xlink:href="#path1_fill" transform="matrix(1.33333 0 0 -1.33333 -477.775 237.311)" fill="#D5D6D9"/>
</g>
</g>
<g id="g194">
<g id="path196">
<use xlink:href="#path2_fill" transform="matrix(1.33333 0 0 -1.33333 -471.938 230.897)" fill="#F7F7F7"/>
</g>
</g>
<g id="path198">
<use xlink:href="#path3_fill" transform="matrix(1.33333 0 0 -1.33333 -452.774 133.456)" fill="#878787"/>
</g>
</g>
</g>
<g id="g200">
<g id="g202">
<g id="g208">
<g id="g210">
<g id="path228">
<use xlink:href="#path4_fill" transform="matrix(1.33333 0 0 -1.33333 -308.833 216.128)" fill="url(#paint4_linear)"/>
</g>
</g>
</g>
</g>
</g>
<g id="g230">
<g id="g232">
<g id="g238">
<g id="path240">
<use xlink:href="#path5_fill" transform="matrix(1.33333 0 0 -1.33333 -279.178 -569.735)" fill="#3C3E42"/>
</g>
</g>
<g id="g242">
<g id="path244">
<use xlink:href="#path6_fill" transform="matrix(1.33333 0 0 -1.33333 -344.844 -542.199)" fill="#3C3E42"/>
</g>
</g>
<g id="g246">
<g id="path248">
<use xlink:href="#path7_fill" transform="matrix(1.33333 0 0 -1.33333 -306.626 -546.435)" fill="#3C3E42"/>
</g>
</g>
<g id="g250">
<g id="path252">
<use xlink:href="#path8_fill" transform="matrix(1.33333 0 0 -1.33333 -71.592 -364.267)" fill="#D5D6D9"/>
</g>
</g>
<g id="g254">
<g id="path256">
<use xlink:href="#path9_fill" transform="matrix(1.33333 0 0 -1.33333 -480.058 -461.705)" fill="#D5D6D9"/>
</g>
</g>
<g id="g258">
<g id="path260">
<use xlink:href="#path10_fill" transform="matrix(1.33333 0 0 -1.33333 -480.411 -362.148)" fill="#D5D6D9"/>
</g>
</g>
<g id="g262">
<g id="path264">
<use xlink:href="#path11_fill" transform="matrix(1.33333 0 0 -1.33333 -480.058 -285.891)" fill="#D5D6D9"/>
</g>
</g>
<g id="path266">
<use xlink:href="#path12_fill" transform="matrix(1.33333 0 0 -1.33333 -478.292 -525.385)" fill="#BCBCBC"/>
</g>
<g id="path268">
<use xlink:href="#path13_fill" transform="matrix(1.33333 0 0 -1.33333 -75.8286 -525.385)" fill="#BCBCBC"/>
</g>
<g id="path270">
<use xlink:href="#path14_fill" transform="matrix(1.33333 0 0 -1.33333 -478.292 173.632)" fill="#BCBCBC"/>
</g>
<g id="path272">
<use xlink:href="#path15_fill" transform="matrix(1.33333 0 0 -1.33333 -75.8286 173.632)" fill="#BCBCBC"/>
</g>
<g id="g274">
<g id="path276">
<use xlink:href="#path16_fill" transform="matrix(1.33333 0 0 -1.33333 -452.334 47.8378)" fill="#8C8C8C"/>
</g>
</g>
</g>
</g>
</g>
</g>
<clipPath id="clip-1" clip-rule="evenodd">
<path d="M -453.272 -501.865L -94.7281 -501.865L -94.7281 135.865L -453.272 135.865L -453.272 -501.865Z" fill="#FFFFFF"/>
</clipPath>
<g id="iPhone 7 Plus" clip-path="url(#clip-1)">
<path d="M -453.272 -501.865L -94.7281 -501.865L -94.7281 135.865L -453.272 135.865L -453.272 -501.865Z" fill="#27313D"/>
<g id="Panel">
<g id="Rectangle">
<use xlink:href="#path17_fill" transform="translate(-454.213 -222.444)" fill="#1B2634"/>
</g>
<g id="Rectangle">
<use xlink:href="#path17_fill" transform="translate(-364.032 -222.444)" fill="#1B2634"/>
</g>
<g id="Rectangle">
<use xlink:href="#path17_fill" transform="translate(-273.851 -222.444)" fill="#1B2634"/>
</g>
<g id="Rectangle">
<use xlink:href="#path17_fill" transform="translate(-183.669 -222.444)" fill="#0D131A"/>
</g>
<g id="Rectangle">
<use xlink:href="#path17_fill" transform="translate(-454.213 -312.547)" fill="#0D131A"/>
</g>
<g id="Rectangle">
<use xlink:href="#path17_fill" transform="translate(-364.032 -312.547)" fill="#0D131A"/>
</g>
<g id="Rectangle">
<use xlink:href="#path17_fill" transform="translate(-273.851 -312.547)" fill="#0D131A"/>
</g>
<g id="Rectangle">
<use xlink:href="#path17_fill" transform="translate(-183.669 -312.547)" fill="#0D131A"/>
</g>
<g id="Rectangle">
<use xlink:href="#path17_fill" transform="translate(-364.032 -132.341)" fill="#1B2634"/>
</g>
<g id="Rectangle">
<use xlink:href="#path17_fill" transform="translate(-454.213 -132.341)" fill="#1B2634"/>
</g>
<g id="Rectangle">
<use xlink:href="#path17_fill" transform="translate(-273.851 -132.341)" fill="#1B2634"/>
</g>
<g id="Rectangle">
<use xlink:href="#path17_fill" transform="translate(-183.669 -132.341)" fill="#0D131A"/>
</g>
<g id="Rectangle">
<use xlink:href="#path17_fill" transform="translate(-364.032 -42.2381)" fill="#1B2634"/>
</g>
<g id="Rectangle">
<use xlink:href="#path17_fill" transform="translate(-454.213 -42.2381)" fill="#1B2634"/>
</g>
<g id="Rectangle">
<use xlink:href="#path17_fill" transform="translate(-273.851 -42.2381)" fill="#1B2634"/>
</g>
<g id="Rectangle">
<use xlink:href="#path17_fill" transform="translate(-183.669 -42.2381)" fill="#0D131A"/>
</g>
<g id="Rectangle">
<use xlink:href="#path17_fill" transform="translate(-364.032 47.8649)" fill="#1B2634"/>
</g>
<g id="Rectangle">
<use xlink:href="#path17_fill" transform="translate(-454.213 47.8649)" fill="#1B2634"/>
</g>
<g id="Rectangle">
<use xlink:href="#path17_fill" transform="translate(-273.851 47.8649)" fill="#1B2634"/>
</g>
<g id="Rectangle">
<use xlink:href="#path17_fill" transform="translate(-183.669 47.8649)" fill="#0D131A"/>
</g>
</g>
<g id="Numbers and ops">
<g id="1">
<use xlink:href="#path18_fill" transform="translate(-423.713 -26.7381)" fill="#F2F2F2"/>
</g>
<g id="0">
<use xlink:href="#path19_fill" transform="translate(-423.713 63.3649)" fill="#F2F2F2"/>
</g>
<g id="2">
<use xlink:href="#path20_fill" transform="translate(-333.532 -26.7381)" fill="#F2F2F2"/>
</g>
<g id="3">
<use xlink:href="#path21_fill" transform="translate(-243.351 -26.7381)" fill="#F2F2F2"/>
</g>
<g id="4">
<use xlink:href="#path22_fill" transform="translate(-423.713 -116.841)" fill="#F2F2F2"/>
</g>
<g id="5">
<use xlink:href="#path23_fill" transform="translate(-333.532 -116.841)" fill="#F2F2F2"/>
</g>
<g id="6">
<use xlink:href="#path24_fill" transform="translate(-243.351 -116.841)" fill="#F2F2F2"/>
</g>
<g id="7">
<use xlink:href="#path25_fill" transform="translate(-423.713 -206.944)" fill="#F2F2F2"/>
</g>
<g id="8">
<use xlink:href="#path26_fill" transform="translate(-333.532 -206.944)" fill="#F2F2F2"/>
</g>
<g id="9">
<use xlink:href="#path27_fill" transform="translate(-243.351 -206.944)" fill="#F2F2F2"/>
</g>
<g id="Plus">
<g id="Rectangle 3">
<use xlink:href="#path28_fill" transform="translate(-154.669 -89.8411)" fill="#BDBDBD"/>
</g>
<g id="Rectangle 3">
<use xlink:href="#path28_fill" transform="matrix(6.12323e-17 1 -1 6.12323e-17 -138.169 -103.341)" fill="#BDBDBD"/>
</g>
</g>
<clipPath id="clip-2" clip-rule="evenodd">
<path d="M -253.351 71.865L -206.351 71.865L -206.351 109.935L -253.351 109.935L -253.351 71.865Z" fill="#FFFFFF"/>
</clipPath>
<g id="Plus" clip-path="url(#clip-2)">
</g>
<g id="PlusMinus">
<g id="Plus">
<g id="Rectangle 3">
<use xlink:href="#path29_fill" transform="translate(-253.851 80.365)" fill="#F2F2F2"/>
</g>
<g id="Rectangle 3">
<use xlink:href="#path29_fill" transform="matrix(6.04849e-17 1 -1 6.19891e-17 -242.351 71.865)" fill="#F2F2F2"/>
</g>
</g>
<g id="Minus">
<use xlink:href="#path30_fill" transform="matrix(0.5 -0.866025 0.866025 0.5 -241.15 108.435)" fill="#F2F2F2"/>
</g>
<g id="Rectangle 3">
<use xlink:href="#path29_fill" transform="translate(-226.351 100.395)" fill="#F2F2F2"/>
</g>
</g>
<g id="Minus">
<use xlink:href="#path28_fill" transform="translate(-154.669 -179.944)" fill="#BDBDBD"/>
</g>
<g id="Equal">
<g id="Minus">
<use xlink:href="#path28_fill" transform="translate(-154.669 85.365)" fill="#BDBDBD"/>
</g>
<g id="Minus">
<use xlink:href="#path28_fill" transform="translate(-154.669 95.365)" fill="#BDBDBD"/>
</g>
</g>
<g id="Mult">
<g id="Rectangle 3">
<use xlink:href="#path28_fill" transform="matrix(0.707107 0.707107 -0.707107 0.707107 -239.396 -280.215)" fill="#BDBDBD"/>
</g>
<g id="Rectangle 3">
<use xlink:href="#path28_fill" transform="matrix(0.707107 -0.707107 0.707107 0.707107 -241.518 -259.001)" fill="#BDBDBD"/>
</g>
</g>
<g id="Div">
<g id="Rectangle 3">
<use xlink:href="#path31_fill" transform="translate(-321.532 -280.544)" fill="#BDBDBD"/>
</g>
<g id="Rectangle 3">
<use xlink:href="#path28_fill" transform="translate(-335.032 -270.047)" fill="#BDBDBD"/>
</g>
<g id="Rectangle 3">
<use xlink:href="#path31_fill" transform="translate(-321.532 -259.55)" fill="#BDBDBD"/>
</g>
<g id="Rectangle 3">
<use xlink:href="#path31_fill" transform="translate(-321.532 106.105)" fill="#F2F2F2"/>
</g>
</g>
<g id="C">
<use xlink:href="#path32_fill" transform="translate(-423.713 -297.047)" fill="#EB5757"/>
</g>
<g id="( )">
<use xlink:href="#path33_fill" transform="translate(-161.169 -26.7381)" fill="#BDBDBD"/>
</g>
<g id="backspace">
<g id="Shape">
<use xlink:href="#path34_fill" transform="translate(-158.669 -283.969)" fill="#BDBDBD"/>
</g>
</g>
</g>
<g id="1280">
<use xlink:href="#path35_fill" transform="translate(-256.032 -419.148)" fill="#F2F2F2"/>
</g>
<g id="1000 + 300 - 20">
<use xlink:href="#path36_fill" transform="translate(-288.669 -461.705)" fill="#6F6F6F"/>
</g>
</g>
</g>
<clipPath id="clip-3" clip-rule="evenodd">
<path d="M -453 -502L -95 -502L -95 -482L -453 -482L -453 -502Z" fill="#FFFFFF"/>
</clipPath>
<g id="Status Bar - Light" clip-path="url(#clip-3)">
<path d="M -453 -502L -95 -502L -95 -482L -453 -482L -453 -502Z"/>
<g id="100%">
<use xlink:href="#path37_fill" transform="translate(-159.298 -498.925)" fill="#FFFFFF"/>
</g>
<g id="Battery">
<use xlink:href="#path38_fill" transform="translate(-124.062 -496.75)" fill="#FFFFFF"/>
</g>
<g id="Bluetooth" opacity="0.4">
<use xlink:href="#path39_fill" transform="translate(-171.533 -498.75)" fill="#FFFFFF"/>
</g>
<g id="Wifi">
<use xlink:href="#path40_fill" transform="translate(-370.344 -496.25)" fill="#FFFFFF"/>
</g>
<g id="Carrier">
<use xlink:href="#path41_fill" transform="translate(-408.339 -500)" fill="#FFFFFF"/>
</g>
<g id="Time">
<use xlink:href="#path42_fill" transform="translate(-297 -498.925)" fill="#FFFFFF"/>
</g>
<g id="Signal">
<use xlink:href="#path43_fill" transform="translate(-446.5 -494.5)" fill="#FFFFFF"/>
</g>
</g>
</g>
</g>
<defs>
<linearGradient id="paint0_linear" x1="0" y1="0" x2="1" y2="0" gradientUnits="userSpaceOnUse" gradientTransform="matrix(8.81746e-14 900 -1440 5.51091e-14 1440 -5.51091e-14)">
<stop offset="0" stop-color="#8FCACC"/>
<stop offset="1" stop-color="#CAE5E6"/>
</linearGradient>
<linearGradient id="paint4_linear" x1="0" y1="0" x2="1" y2="0" gradientUnits="userSpaceOnUse" gradientTransform="matrix(-25.4226 44.0332 44.0332 25.4226 16.1138 -9.30995)">
<stop offset="0" stop-color="#9E9FA1"/>
<stop offset="0.247045" stop-color="#D5D6D9"/>
<stop offset="0.34" stop-color="#D5D6D9"/>
<stop offset="0.368316" stop-color="#D5D6D9"/>
<stop offset="0.635" stop-color="#D5D6D9"/>
<stop offset="0.705873" stop-color="#D5D6D9"/>
<stop offset="1" stop-color="#9E9FA1"/>
</linearGradient>
<path id="path0_fill" d="M 0 0L 1440 0L 1440 900L 0 900L 0 0Z"/>
<path id="path1_fill" d="M 299.608 48.3392C 299.608 25.9551 281.462 7.81043 259.079 7.81043L 47.4233 7.81043C 25.0393 7.81043 6.89268 25.9551 6.89268 48.3392L 6.89268 584.234C 6.89268 606.62 25.0393 624.765 47.4233 624.765L 259.079 624.765C 281.462 624.765 299.608 606.62 299.608 584.234L 299.608 48.3392ZM 261.194 630.466L 45.0347 630.466C 20.163 630.466 1.27836e-05 610.303 1.27836e-05 585.432L 1.27836e-05 45.0328C 1.27836e-05 20.162 20.163 -1.45268e-06 45.0347 -1.45268e-06L 261.194 -1.45268e-06C 286.063 -1.45268e-06 306.226 20.162 306.226 45.0328L 306.226 585.432C 306.226 610.303 286.063 630.466 261.194 630.466Z"/>
<path id="path2_fill" d="M 254.942 0L 41.8816 0C 18.7511 0 -1.39457e-06 18.7492 -1.39457e-06 41.8797L -1.39457e-06 579.246C -1.39457e-06 602.376 18.7511 621.126 41.8816 621.126L 254.942 621.126C 278.071 621.126 296.822 602.376 296.822 579.246L 296.822 41.8797C 296.822 18.7492 278.071 0 254.942 0Z"/>
<path id="path3_fill" d="M 268.412 1.627e-06L -1.71997e-05 1.627e-06L -1.71997e-05 473.379L 268.412 473.379L 268.412 1.627e-06Z"/>
<path id="path4_fill" d="M 3.71886e-05 25.4191C 3.71886e-05 11.3796 11.3815 -4.0675e-06 25.4182 -4.0675e-06C 39.4549 -4.0675e-06 50.8373 11.3796 50.8373 25.4191C 50.8373 39.4577 39.4549 50.8373 25.4182 50.8373C 11.3815 50.8373 3.71886e-05 39.4577 3.71886e-05 25.4191ZM 3.17687 25.4191C 3.17687 37.7022 13.1342 47.6604 25.4182 47.6604C 37.7022 47.6604 47.6594 37.7022 47.6594 25.4191C 47.6594 13.1332 37.7022 3.17692 25.4182 3.17692C 13.1342 3.17692 3.17687 13.1332 3.17687 25.4191Z"/>
<path id="path5_fill" d="M 7.94372 3.97186C 7.94372 1.77744 6.16438 6.53705e-08 3.97186 6.53705e-08C 1.77744 6.53705e-08 1.30741e-07 1.77744 1.30741e-07 3.97186C 1.30741e-07 6.16533 1.77744 7.94277 3.97186 7.94277C 6.16438 7.94277 7.94372 6.16533 7.94372 3.97186Z"/>
<path id="path6_fill" d="M 11.1216 5.55984C 11.1216 2.4886 8.63299 -1.45268e-07 5.56079 -1.45268e-07C 2.48955 -1.45268e-07 -1.52531e-07 2.4886 -1.52531e-07 5.55984C -1.52531e-07 8.63108 2.48955 11.1197 5.56079 11.1197C 8.63299 11.1197 11.1216 8.63108 11.1216 5.55984Z"/>
<path id="path7_fill" d="M 45.8734 0L 3.17787 0C 1.42423 0 -1.30741e-06 1.42233 -1.30741e-06 3.17692C -1.30741e-06 4.9315 1.42423 6.35478 3.17787 6.35478L 45.8734 6.35478C 47.6309 6.35478 49.0513 4.9315 49.0513 3.17692C 49.0513 1.42233 47.6309 0 45.8734 0Z"/>
<path id="path8_fill" d="M 0 43.1316L 0 1.35093C 0 0.604536 0.606441 -2.90536e-07 1.35188 -2.90536e-07L 3.15407 -2.90536e-07C 3.8995 -2.90536e-07 4.50214 0.604536 4.50214 1.35093L 4.50214 43.1316C 4.50214 43.877 3.8995 44.4825 3.15407 44.4825L 1.35188 44.4825C 0.606441 44.4825 0 43.877 0 43.1316Z"/>
<path id="path9_fill" d="M 0 25.6562L 0 1.35188C 0 0.60549 0.603585 5.66545e-07 1.34902 5.66545e-07L 3.15121 5.66545e-07C 3.89665 5.66545e-07 4.50214 0.60549 4.50214 1.35188L 4.50214 25.6562C 4.50214 26.4026 3.89665 27.0081 3.15121 27.0081L 1.34902 27.0081C 0.603585 27.0081 0 26.4026 0 25.6562Z"/>
<path id="path10_fill" d="M 0 44.7205L 0 1.35188C 0 0.605489 0.605489 9.29714e-07 1.35188 9.29714e-07L 3.15407 9.29714e-07C 3.8995 9.29714e-07 4.50214 0.605489 4.50214 1.35188L 4.50214 44.7205C 4.50214 45.466 3.8995 46.0715 3.15407 46.0715L 1.35188 46.0715C 0.605489 46.0715 0 45.466 0 44.7205Z"/>
<path id="path11_fill" d="M 0 44.7205L 0 1.35188C 0 0.606441 0.603585 9.29714e-07 1.34902 9.29714e-07L 3.15121 9.29714e-07C 3.89665 9.29714e-07 4.50214 0.606441 4.50214 1.35188L 4.50214 44.7205C 4.50214 45.4669 3.89665 46.0715 3.15121 46.0715L 1.34902 46.0715C 0.603585 46.0715 0 45.4669 0 44.7205Z"/>
<path id="path12_fill" d="M 4.76585 4.64857e-07L 1.48754e-05 4.64857e-07L 1.48754e-05 9.43271L 4.76585 9.43271L 4.76585 4.64857e-07Z"/>
<path id="path13_fill" d="M 4.76583 4.64857e-07L -9.29714e-07 4.64857e-07L -9.29714e-07 9.43271L 4.76583 9.43271L 4.76583 4.64857e-07Z"/>
<path id="path14_fill" d="M 4.76585 -7.08907e-06L 1.48754e-05 -7.08907e-06L 1.48754e-05 9.43364L 4.76585 9.43364L 4.76585 -7.08907e-06Z"/>
<path id="path15_fill" d="M 4.76583 -7.08907e-06L -9.29714e-07 -7.08907e-06L -9.29714e-07 9.43364L 4.76583 9.43364L 4.76583 -7.08907e-06Z"/>
<path id="path16_fill" d="M 268.066 0L 268.066 409.165L -4.881e-06 409.165L 268.066 0Z"/>
<path id="path17_fill" d="M 0 0L 88 0L 88 88L 0 88L 0 0Z"/>
<path id="path18_fill" d="M 16.2656 45L 13.4531 45L 13.4531 14.25L 4.17188 17.6953L 4.17188 15.0703L 15.7969 10.7578L 16.2656 10.7578L 16.2656 45Z"/>
<path id="path19_fill" d="M 23.7891 30.7734C 23.7891 35.5859 22.9062 39.2422 21.1406 41.7422C 19.375 44.2266 16.7734 45.4688 13.3359 45.4688C 9.96094 45.4688 7.375 44.25 5.57812 41.8125C 3.78125 39.3594 2.85938 35.7969 2.8125 31.125L 2.8125 25.0078C 2.8125 20.2109 3.70312 16.5781 5.48438 14.1094C 7.26562 11.6406 9.86719 10.4062 13.2891 10.4062C 16.6641 10.4062 19.2422 11.6016 21.0234 13.9922C 22.8047 16.3672 23.7266 19.875 23.7891 24.5156L 23.7891 30.7734ZM 20.9766 24.6562C 20.9766 20.75 20.3359 17.7969 19.0547 15.7969C 17.7891 13.7969 15.8672 12.7969 13.2891 12.7969C 10.7578 12.7969 8.85156 13.7734 7.57031 15.7266C 6.28906 17.6797 5.63281 20.5625 5.60156 24.375L 5.60156 31.0781C 5.60156 34.9688 6.25781 37.9453 7.57031 40.0078C 8.89844 42.0703 10.8203 43.1016 13.3359 43.1016C 15.8359 43.1016 17.7266 42.0938 19.0078 40.0781C 20.3047 38.0625 20.9609 35.1094 20.9766 31.2188L 20.9766 24.6562Z"/>
<path id="path20_fill" d="M 24.5859 45L 3.21094 45L 3.21094 42.8438L 14.9062 29.5781C 16.8438 27.3438 18.1875 25.5 18.9375 24.0469C 19.6875 22.5938 20.0625 21.1797 20.0625 19.8047C 20.0625 17.6484 19.4297 15.9453 18.1641 14.6953C 16.8984 13.4297 15.1563 12.7969 12.9375 12.7969C 10.6406 12.7969 8.78125 13.5313 7.35938 15C 5.95312 16.4687 5.25 18.375 5.25 20.7188L 2.46094 20.7188C 2.46094 18.7969 2.89063 17.0469 3.75 15.4688C 4.625 13.8906 5.85938 12.6562 7.45312 11.7656C 9.0625 10.8594 10.8906 10.4062 12.9375 10.4062C 16.0625 10.4062 18.5 11.2266 20.25 12.8672C 22.0156 14.5078 22.8984 16.7422 22.8984 19.5703C 22.8984 21.1641 22.3984 22.9062 21.3984 24.7969C 20.4141 26.6875 18.6719 29.0469 16.1719 31.875L 6.65625 42.6328L 24.5859 42.6328L 24.5859 45Z"/>
<path id="path21_fill" d="M 9.44531 26.4141L 12.3516 26.4141C 13.9609 26.4141 15.3672 26.1328 16.5703 25.5703C 17.7734 24.9922 18.6875 24.2109 19.3125 23.2266C 19.9531 22.2266 20.2734 21.0781 20.2734 19.7812C 20.2734 17.5937 19.6563 15.8828 18.4219 14.6484C 17.1875 13.4141 15.4141 12.7969 13.1016 12.7969C 10.9141 12.7969 9.11719 13.4453 7.71094 14.7422C 6.32031 16.0234 5.625 17.7188 5.625 19.8281L 2.8125 19.8281C 2.8125 18.0625 3.25781 16.4531 4.14844 15C 5.03906 13.5313 6.27344 12.3984 7.85156 11.6016C 9.42969 10.8047 11.1797 10.4062 13.1016 10.4062C 16.1953 10.4062 18.6328 11.25 20.4141 12.9375C 22.1953 14.625 23.0859 16.9375 23.0859 19.875C 23.0859 21.5156 22.5625 23.0313 21.5156 24.4219C 20.4844 25.7969 19.0625 26.8281 17.25 27.5156C 19.375 28.1094 20.9844 29.1328 22.0781 30.5859C 23.1719 32.0234 23.7188 33.7422 23.7188 35.7422C 23.7188 38.6641 22.7656 41.0156 20.8594 42.7969C 18.9531 44.5781 16.4062 45.4688 13.2188 45.4688C 11.1875 45.4688 9.32031 45.0625 7.61719 44.25C 5.92969 43.4375 4.61719 42.3047 3.67969 40.8516C 2.75781 39.3828 2.29688 37.6797 2.29688 35.7422L 5.10938 35.7422C 5.10938 37.9141 5.86719 39.6875 7.38281 41.0625C 8.89844 42.4219 10.8437 43.1016 13.2188 43.1016C 15.6406 43.1016 17.5234 42.4844 18.8672 41.25C 20.2266 40 20.9062 38.1953 20.9062 35.8359C 20.9062 33.5547 20.1719 31.8125 18.7031 30.6094C 17.25 29.4063 15.1016 28.8047 12.2578 28.8047L 9.44531 28.8047L 9.44531 26.4141Z"/>
<path id="path22_fill" d="M 20.4375 34.0078L 25.7578 34.0078L 25.7578 36.375L 20.4375 36.375L 20.4375 45L 17.625 45L 17.625 36.375L 1.57031 36.375L 1.57031 34.7812L 17.3672 10.875L 20.4375 10.875L 20.4375 34.0078ZM 5.01562 34.0078L 17.625 34.0078L 17.625 14.5078L 16.3828 16.6641L 5.01562 34.0078Z"/>
<path id="path23_fill" d="M 5.10938 27.5156L 6.77344 10.875L 23.8359 10.875L 23.8359 13.4766L 9.1875 13.4766L 7.99219 25.0078C 9.82031 23.7578 11.9609 23.1328 14.4141 23.1328C 17.4922 23.1328 19.9453 24.1328 21.7734 26.1328C 23.6016 28.1328 24.5156 30.7969 24.5156 34.125C 24.5156 37.7188 23.625 40.5078 21.8438 42.4922C 20.0625 44.4766 17.5547 45.4688 14.3203 45.4688C 11.3516 45.4688 8.94531 44.6406 7.10156 42.9844C 5.25781 41.3281 4.20312 39.0078 3.9375 36.0234L 6.63281 36.0234C 6.89844 38.3516 7.6875 40.1172 9 41.3203C 10.3125 42.5078 12.0859 43.1016 14.3203 43.1016C 16.7578 43.1016 18.5937 42.3281 19.8281 40.7812C 21.0781 39.2344 21.7031 37.0312 21.7031 34.1719C 21.7031 31.6719 21.0078 29.6328 19.6172 28.0547C 18.2266 26.4766 16.3281 25.6875 13.9219 25.6875C 12.5937 25.6875 11.4375 25.8594 10.4531 26.2031C 9.46875 26.5312 8.42969 27.1797 7.33594 28.1484L 5.10938 27.5156Z"/>
<path id="path24_fill" d="M 19.7578 10.6172L 19.7578 13.0781L 19.4297 13.0781C 15.3516 13.0781 12.1406 14.2813 9.79688 16.6875C 7.45312 19.0781 6.15625 22.4062 5.90625 26.6719C 6.84375 25.375 8.03906 24.375 9.49219 23.6719C 10.9453 22.9531 12.5703 22.5938 14.3672 22.5938C 17.3672 22.5938 19.75 23.6328 21.5156 25.7109C 23.2969 27.7734 24.1875 30.4766 24.1875 33.8203C 24.1875 36.0391 23.7734 38.0391 22.9453 39.8203C 22.1172 41.6016 20.9297 42.9922 19.3828 43.9922C 17.8359 44.9766 16.0703 45.4688 14.0859 45.4688C 10.8203 45.4688 8.16406 44.2891 6.11719 41.9297C 4.07031 39.5547 3.04688 36.4922 3.04688 32.7422L 3.04688 29.9297C 3.04688 23.8203 4.4375 19.0937 7.21875 15.75C 10 12.3906 13.9453 10.6797 19.0547 10.6172L 19.7578 10.6172ZM 13.9219 25.0078C 12.1406 25.0078 10.4766 25.5391 8.92969 26.6016C 7.39844 27.6484 6.375 28.9844 5.85938 30.6094L 5.85938 33C 5.85938 35.9687 6.61719 38.3906 8.13281 40.2656C 9.66406 42.1406 11.6484 43.0781 14.0859 43.0781C 16.2734 43.0781 18.0391 42.2109 19.3828 40.4766C 20.7422 38.7422 21.4219 36.5547 21.4219 33.9141C 21.4219 31.2266 20.7422 29.0703 19.3828 27.4453C 18.0391 25.8203 16.2188 25.0078 13.9219 25.0078Z"/>
<path id="path25_fill" d="M 24.2344 12.4922L 9.65625 45L 6.72656 45L 21.2109 13.2656L 1.80469 13.2656L 1.80469 10.875L 24.2344 10.875L 24.2344 12.4922Z"/>
<path id="path26_fill" d="M 23.3203 19.6641C 23.3203 21.4297 22.8047 23.0156 21.7734 24.4219C 20.7422 25.8125 19.3828 26.8359 17.6953 27.4922C 19.6641 28.1641 21.2422 29.25 22.4297 30.75C 23.6172 32.25 24.2109 33.9844 24.2109 35.9531C 24.2109 38.875 23.2188 41.1953 21.2344 42.9141C 19.25 44.6172 16.625 45.4688 13.3594 45.4688C 10.0625 45.4688 7.42187 44.6172 5.4375 42.9141C 3.46875 41.2109 2.48438 38.8906 2.48438 35.9531C 2.48438 34.0156 3.05469 32.2891 4.19531 30.7734C 5.33594 29.2578 6.89844 28.1641 8.88281 27.4922C 7.19531 26.8359 5.85156 25.8125 4.85156 24.4219C 3.85156 23.0156 3.35156 21.4297 3.35156 19.6641C 3.35156 16.8359 4.25781 14.5859 6.07031 12.9141C 7.89844 11.2422 10.3125 10.4062 13.3125 10.4062C 16.3125 10.4062 18.7266 11.25 20.5547 12.9375C 22.3984 14.625 23.3203 16.8672 23.3203 19.6641ZM 21.3984 35.9766C 21.3984 33.8516 20.6406 32.1094 19.125 30.75C 17.6094 29.375 15.6719 28.6875 13.3125 28.6875C 10.9531 28.6875 9.02344 29.3594 7.52344 30.7031C 6.02344 32.0469 5.27344 33.8047 5.27344 35.9766C 5.27344 38.1484 6 39.8828 7.45312 41.1797C 8.90625 42.4609 10.875 43.1016 13.3594 43.1016C 15.7812 43.1016 17.7266 42.4609 19.1953 41.1797C 20.6641 39.8984 21.3984 38.1641 21.3984 35.9766ZM 20.5078 19.6406C 20.5078 17.6875 19.8281 16.0625 18.4688 14.7656C 17.125 13.4531 15.4062 12.7969 13.3125 12.7969C 11.1875 12.7969 9.46094 13.4297 8.13281 14.6953C 6.82031 15.9453 6.16406 17.5937 6.16406 19.6406C 6.16406 21.6406 6.82031 23.25 8.13281 24.4688C 9.46094 25.6875 11.1953 26.2969 13.3359 26.2969C 15.4453 26.2969 17.1641 25.6875 18.4922 24.4688C 19.8359 23.2344 20.5078 21.625 20.5078 19.6406Z"/>
<path id="path27_fill" d="M 20.7188 29.2031C 19.7187 30.6719 18.4766 31.8125 16.9922 32.625C 15.5078 33.4219 13.8984 33.8203 12.1641 33.8203C 10.2266 33.8203 8.51563 33.3203 7.03125 32.3203C 5.54688 31.3203 4.39844 29.9375 3.58594 28.1719C 2.77344 26.4063 2.36719 24.4766 2.36719 22.3828C 2.36719 20.1328 2.79688 18.0859 3.65625 16.2422C 4.53125 14.3984 5.74219 12.9688 7.28906 11.9531C 8.85156 10.9219 10.6484 10.4062 12.6797 10.4062C 16.1016 10.4062 18.7656 11.6094 20.6719 14.0156C 22.5781 16.4062 23.5312 19.8047 23.5312 24.2109L 23.5312 26.7422C 23.5312 32.8984 22.2188 37.5234 19.5938 40.6172C 16.9688 43.7109 12.9609 45.2578 7.57031 45.2578L 7.05469 45.2578L 7.07812 42.8203L 8.0625 42.8203C 12.1406 42.7578 15.2422 41.6016 17.3672 39.3516C 19.4922 37.1016 20.6094 33.7187 20.7188 29.2031ZM 12.5156 31.4062C 14.3906 31.4062 16.0703 30.8516 17.5547 29.7422C 19.0547 28.6172 20.1172 27.1641 20.7422 25.3828L 20.7422 23.7656C 20.7422 20.2969 20.0156 17.6094 18.5625 15.7031C 17.125 13.7812 15.1797 12.8203 12.7266 12.8203C 10.5078 12.8203 8.6875 13.7188 7.26562 15.5156C 5.84375 17.2969 5.13281 19.5469 5.13281 22.2656C 5.13281 24.875 5.8125 27.0547 7.17188 28.8047C 8.54687 30.5391 10.3281 31.4062 12.5156 31.4062Z"/>
<path id="path28_fill" d="M 0 0L 30 0L 30 3L 0 3L 0 0Z"/>
<path id="path29_fill" d="M 0 0L 20 0L 20 3L 0 3L 0 0Z"/>
<path id="path30_fill" d="M 0 0L 40 0L 40 3L 0 3L 0 0Z"/>
<path id="path31_fill" d="M 0 0L 3 0L 3 3L 0 3L 0 0Z"/>
<path id="path32_fill" d="M 28.4766 34.3594C 28.0859 37.9531 26.7969 40.7031 24.6094 42.6094C 22.4375 44.5156 19.5391 45.4688 15.9141 45.4688C 13.3828 45.4688 11.1406 44.8359 9.1875 43.5703C 7.25 42.3047 5.75 40.5156 4.6875 38.2031C 3.625 35.875 3.08594 33.2188 3.07031 30.2344L 3.07031 25.8047C 3.07031 22.7734 3.60156 20.0859 4.66406 17.7422C 5.72656 15.3984 7.25 13.5938 9.23438 12.3281C 11.2344 11.0469 13.5312 10.4062 16.125 10.4062C 19.7812 10.4062 22.6641 11.3984 24.7734 13.3828C 26.8984 15.3516 28.1328 18.0781 28.4766 21.5625L 25.5703 21.5625C 24.8516 15.7656 21.7031 12.8672 16.125 12.8672C 13.0312 12.8672 10.5625 14.0234 8.71875 16.3359C 6.89062 18.6484 5.97656 21.8438 5.97656 25.9219L 5.97656 30.0938C 5.97656 34.0312 6.86719 37.1719 8.64844 39.5156C 10.4453 41.8594 12.8672 43.0312 15.9141 43.0312C 18.9297 43.0312 21.2031 42.3125 22.7344 40.875C 24.2656 39.4219 25.2109 37.25 25.5703 34.3594L 28.4766 34.3594Z"/>
<path id="path33_fill" d="M 3.28125 31.2188C 3.28125 27.8125 3.71875 24.5078 4.59375 21.3047C 5.46875 18.0859 6.75 15.1484 8.4375 12.4922C 10.125 9.82031 11.9375 7.90625 13.875 6.75L 14.5547 8.64844C 13.5234 9.38281 12.5 10.4531 11.4844 11.8594C 10.4687 13.2656 9.5625 14.9375 8.76562 16.875C 7.96875 18.8125 7.32031 20.9922 6.82031 23.4141C 6.33594 25.8203 6.09375 28.5547 6.09375 31.6172C 6.09375 34.8828 6.46094 38.0234 7.19531 41.0391C 7.94531 44.0547 8.96875 46.7109 10.2656 49.0078C 11.5625 51.3203 12.9922 53.0547 14.5547 54.2109L 13.875 56.0156C 11.8906 54.8281 10.0547 52.9063 8.36719 50.25C 6.67969 47.6094 5.40625 44.7031 4.54688 41.5312C 3.70312 38.3438 3.28125 34.9063 3.28125 31.2188ZM 39.0469 31.5703C 39.0469 35.0078 38.6172 38.3203 37.7578 41.5078C 36.9141 44.6797 35.6563 47.5859 33.9844 50.2266C 32.3125 52.8672 30.4688 54.7969 28.4531 56.0156L 27.7734 54.2109C 29.3047 53.1172 30.7188 51.4219 32.0156 49.125C 33.3281 46.8281 34.3594 44.1562 35.1094 41.1094C 35.8594 38.0469 36.2344 34.7266 36.2344 31.1484C 36.2344 27.9141 35.8594 24.7969 35.1094 21.7969C 34.3594 18.7813 33.3203 16.0937 31.9922 13.7344C 30.6797 11.3594 29.2734 9.63281 27.7734 8.55469L 28.4531 6.75C 30.4219 7.95313 32.2422 9.875 33.9141 12.5156C 35.5859 15.1562 36.8594 18.0859 37.7344 21.3047C 38.6094 24.5234 39.0469 27.9453 39.0469 31.5703Z"/>
<path id="path34_fill" fill-rule="evenodd" d="M 34.8333 0L 11.0833 0C 9.975 0 9.18333 0.464068 8.55 1.3922L 0 13.922L 8.55 26.4519C 9.18333 27.2253 9.975 27.8441 11.0833 27.8441L 34.8333 27.8441C 36.575 27.8441 38 26.4519 38 24.7503L 38 3.09378C 38 1.3922 36.575 0 34.8333 0ZM 30.0833 19.4908L 27.8667 21.6565L 22.1667 16.0877L 16.4667 21.6565L 14.25 19.4908L 19.95 13.922L 14.25 8.35321L 16.4667 6.18756L 22.1667 11.7564L 27.8667 6.18756L 30.0833 8.35321L 24.3833 13.922L 30.0833 19.4908Z"/>
<path id="path35_fill" d="M 21.6875 59L 17.9375 59L 17.9375 18L 5.5625 22.5938L 5.5625 19.0938L 21.0625 13.3438L 21.6875 13.3438L 21.6875 59ZM 68.2812 59L 39.7812 59L 39.7812 56.125L 55.375 38.4375C 57.9583 35.4583 59.75 33 60.75 31.0625C 61.75 29.125 62.25 27.2396 62.25 25.4062C 62.25 22.5312 61.4062 20.2604 59.7188 18.5938C 58.0312 16.9062 55.7083 16.0625 52.75 16.0625C 49.6875 16.0625 47.2083 17.0417 45.3125 19C 43.4375 20.9583 42.5 23.5 42.5 26.625L 38.7812 26.625C 38.7812 24.0625 39.3542 21.7292 40.5 19.625C 41.6667 17.5208 43.3125 15.875 45.4375 14.6875C 47.5833 13.4792 50.0208 12.875 52.75 12.875C 56.9167 12.875 60.1667 13.9688 62.5 16.1562C 64.8542 18.3438 66.0312 21.3229 66.0312 25.0938C 66.0312 27.2188 65.3646 29.5417 64.0312 32.0625C 62.7188 34.5833 60.3958 37.7292 57.0625 41.5L 44.375 55.8438L 68.2812 55.8438L 68.2812 59ZM 102.094 25.2188C 102.094 27.5729 101.406 29.6875 100.031 31.5625C 98.6562 33.4167 96.8438 34.7812 94.5938 35.6562C 97.2188 36.5521 99.3229 38 100.906 40C 102.49 42 103.281 44.3125 103.281 46.9375C 103.281 50.8333 101.958 53.9271 99.3125 56.2188C 96.6667 58.4896 93.1667 59.625 88.8125 59.625C 84.4167 59.625 80.8958 58.4896 78.25 56.2188C 75.625 53.9479 74.3125 50.8542 74.3125 46.9375C 74.3125 44.3542 75.0729 42.0521 76.5938 40.0312C 78.1146 38.0104 80.1979 36.5521 82.8438 35.6562C 80.5938 34.7812 78.8021 33.4167 77.4688 31.5625C 76.1354 29.6875 75.4688 27.5729 75.4688 25.2188C 75.4688 21.4479 76.6771 18.4479 79.0938 16.2188C 81.5312 13.9896 84.75 12.875 88.75 12.875C 92.75 12.875 95.9688 14 98.4062 16.25C 100.865 18.5 102.094 21.4896 102.094 25.2188ZM 99.5312 46.9688C 99.5312 44.1354 98.5208 41.8125 96.5 40C 94.4792 38.1667 91.8958 37.25 88.75 37.25C 85.6042 37.25 83.0312 38.1458 81.0312 39.9375C 79.0312 41.7292 78.0312 44.0729 78.0312 46.9688C 78.0312 49.8646 79 52.1771 80.9375 53.9062C 82.875 55.6146 85.5 56.4688 88.8125 56.4688C 92.0417 56.4688 94.6354 55.6146 96.5938 53.9062C 98.5521 52.1979 99.5312 49.8854 99.5312 46.9688ZM 98.3438 25.1875C 98.3438 22.5833 97.4375 20.4167 95.625 18.6875C 93.8333 16.9375 91.5417 16.0625 88.75 16.0625C 85.9167 16.0625 83.6146 16.9062 81.8438 18.5938C 80.0938 20.2604 79.2188 22.4583 79.2188 25.1875C 79.2188 27.8542 80.0938 30 81.8438 31.625C 83.6146 33.25 85.9271 34.0625 88.7812 34.0625C 91.5938 34.0625 93.8854 33.25 95.6562 31.625C 97.4479 29.9792 98.3438 27.8333 98.3438 25.1875ZM 138.219 40.0312C 138.219 46.4479 137.042 51.3229 134.688 54.6562C 132.333 57.9688 128.865 59.625 124.281 59.625C 119.781 59.625 116.333 58 113.938 54.75C 111.542 51.4792 110.312 46.7292 110.25 40.5L 110.25 32.3438C 110.25 25.9479 111.438 21.1042 113.812 17.8125C 116.188 14.5208 119.656 12.875 124.219 12.875C 128.719 12.875 132.156 14.4688 134.531 17.6562C 136.906 20.8229 138.135 25.5 138.219 31.6875L 138.219 40.0312ZM 134.469 31.875C 134.469 26.6667 133.615 22.7292 131.906 20.0625C 130.219 17.3958 127.656 16.0625 124.219 16.0625C 120.844 16.0625 118.302 17.3646 116.594 19.9688C 114.885 22.5729 114.01 26.4167 113.969 31.5L 113.969 40.4375C 113.969 45.625 114.844 49.5938 116.594 52.3438C 118.365 55.0938 120.927 56.4688 124.281 56.4688C 127.615 56.4688 130.135 55.125 131.844 52.4375C 133.573 49.75 134.448 45.8125 134.469 40.625L 134.469 31.875Z"/>
<path id="path36_fill" d="M 8.98828 22L 6.15234 22L 6.15234 8.30078L 1.96875 9.73047L 1.96875 7.32812L 8.625 4.87891L 8.98828 4.87891L 8.98828 22ZM 26.0391 14.8164C 26.0391 17.2695 25.5781 19.1211 24.6562 20.3711C 23.7422 21.6133 22.3477 22.2344 20.4727 22.2344C 18.6289 22.2344 17.2383 21.6289 16.3008 20.418C 15.3711 19.1992 14.8945 17.3984 14.8711 15.0156L 14.8711 12.0625C 14.8711 9.60937 15.3281 7.76953 16.2422 6.54297C 17.1641 5.31641 18.5664 4.70312 20.4492 4.70312C 22.3164 4.70312 23.707 5.30078 24.6211 6.49609C 25.543 7.69141 26.0156 9.48047 26.0391 11.8633L 26.0391 14.8164ZM 23.1914 11.6289C 23.1914 10.0273 22.9727 8.85547 22.5352 8.11328C 22.0977 7.36328 21.4023 6.98828 20.4492 6.98828C 19.5195 6.98828 18.8359 7.34375 18.3984 8.05469C 17.9609 8.75781 17.7305 9.85938 17.707 11.3594L 17.707 15.2266C 17.707 16.8203 17.9297 18.0078 18.375 18.7891C 18.8203 19.5703 19.5195 19.9609 20.4727 19.9609C 21.3867 19.9609 22.0625 19.6016 22.5 18.8828C 22.9375 18.1562 23.168 17.0234 23.1914 15.4844L 23.1914 11.6289ZM 39.6797 14.8164C 39.6797 17.2695 39.2188 19.1211 38.2969 20.3711C 37.3828 21.6133 35.9883 22.2344 34.1133 22.2344C 32.2695 22.2344 30.8789 21.6289 29.9414 20.418C 29.0117 19.1992 28.5352 17.3984 28.5117 15.0156L 28.5117 12.0625C 28.5117 9.60937 28.9688 7.76953 29.8828 6.54297C 30.8047 5.31641 32.207 4.70312 34.0898 4.70312C 35.957 4.70312 37.3477 5.30078 38.2617 6.49609C 39.1836 7.69141 39.6562 9.48047 39.6797 11.8633L 39.6797 14.8164ZM 36.832 11.6289C 36.832 10.0273 36.6133 8.85547 36.1758 8.11328C 35.7383 7.36328 35.043 6.98828 34.0898 6.98828C 33.1602 6.98828 32.4766 7.34375 32.0391 8.05469C 31.6016 8.75781 31.3711 9.85938 31.3477 11.3594L 31.3477 15.2266C 31.3477 16.8203 31.5703 18.0078 32.0156 18.7891C 32.4609 19.5703 33.1602 19.9609 34.1133 19.9609C 35.0273 19.9609 35.7031 19.6016 36.1406 18.8828C 36.5781 18.1562 36.8086 17.0234 36.832 15.4844L 36.832 11.6289ZM 53.3203 14.8164C 53.3203 17.2695 52.8594 19.1211 51.9375 20.3711C 51.0234 21.6133 49.6289 22.2344 47.7539 22.2344C 45.9102 22.2344 44.5195 21.6289 43.582 20.418C 42.6523 19.1992 42.1758 17.3984 42.1523 15.0156L 42.1523 12.0625C 42.1523 9.60937 42.6094 7.76953 43.5234 6.54297C 44.4453 5.31641 45.8477 4.70312 47.7305 4.70312C 49.5977 4.70312 50.9883 5.30078 51.9023 6.49609C 52.8242 7.69141 53.2969 9.48047 53.3203 11.8633L 53.3203 14.8164ZM 50.4727 11.6289C 50.4727 10.0273 50.2539 8.85547 49.8164 8.11328C 49.3789 7.36328 48.6836 6.98828 47.7305 6.98828C 46.8008 6.98828 46.1172 7.34375 45.6797 8.05469C 45.2422 8.75781 45.0117 9.85938 44.9883 11.3594L 44.9883 15.2266C 44.9883 16.8203 45.2109 18.0078 45.6562 18.7891C 46.1016 19.5703 46.8008 19.9609 47.7539 19.9609C 48.668 19.9609 49.3438 19.6016 49.7812 18.8828C 50.2187 18.1562 50.4492 17.0234 50.4727 15.4844L 50.4727 11.6289ZM 68.5781 12.6133L 73.0312 12.6133L 73.0312 15.2148L 68.5781 15.2148L 68.5781 20.2891L 65.8125 20.2891L 65.8125 15.2148L 61.3359 15.2148L 61.3359 12.6133L 65.8125 12.6133L 65.8125 7.86719L 68.5781 7.86719L 68.5781 12.6133ZM 84.4688 12.168L 86.2031 12.168C 87.0781 12.1602 87.7695 11.9336 88.2773 11.4883C 88.793 11.043 89.0508 10.3984 89.0508 9.55469C 89.0508 8.74219 88.8359 8.11328 88.4062 7.66797C 87.9844 7.21484 87.3359 6.98828 86.4609 6.98828C 85.6953 6.98828 85.0664 7.21094 84.5742 7.65625C 84.082 8.09375 83.8359 8.66797 83.8359 9.37891L 80.9883 9.37891C 80.9883 8.50391 81.2187 7.70703 81.6797 6.98828C 82.1484 6.26953 82.7969 5.71094 83.625 5.3125C 84.4609 4.90625 85.3945 4.70312 86.4258 4.70312C 88.1289 4.70312 89.4648 5.13281 90.4336 5.99219C 91.4102 6.84375 91.8984 8.03125 91.8984 9.55469C 91.8984 10.3203 91.6523 11.043 91.1602 11.7227C 90.6758 12.3945 90.0469 12.9023 89.2734 13.2461C 90.2109 13.5664 90.9219 14.0703 91.4062 14.7578C 91.8984 15.4453 92.1445 16.2656 92.1445 17.2188C 92.1445 18.75 91.6172 19.9688 90.5625 20.875C 89.5156 21.7813 88.1367 22.2344 86.4258 22.2344C 84.7852 22.2344 83.4414 21.7969 82.3945 20.9219C 81.3477 20.0469 80.8242 18.8828 80.8242 17.4297L 83.6719 17.4297C 83.6719 18.1797 83.9219 18.7891 84.4219 19.2578C 84.9297 19.7266 85.6094 19.9609 86.4609 19.9609C 87.3437 19.9609 88.0391 19.7266 88.5469 19.2578C 89.0547 18.7891 89.3086 18.1094 89.3086 17.2188C 89.3086 16.3203 89.043 15.6289 88.5117 15.1445C 87.9805 14.6602 87.1914 14.418 86.1445 14.418L 84.4688 14.418L 84.4688 12.168ZM 105.938 14.8164C 105.938 17.2695 105.477 19.1211 104.555 20.3711C 103.641 21.6133 102.246 22.2344 100.371 22.2344C 98.5273 22.2344 97.1367 21.6289 96.1992 20.418C 95.2695 19.1992 94.793 17.3984 94.7695 15.0156L 94.7695 12.0625C 94.7695 9.60937 95.2266 7.76953 96.1406 6.54297C 97.0625 5.31641 98.4648 4.70312 100.348 4.70312C 102.215 4.70312 103.605 5.30078 104.52 6.49609C 105.441 7.69141 105.914 9.48047 105.938 11.8633L 105.938 14.8164ZM 103.09 11.6289C 103.09 10.0273 102.871 8.85547 102.434 8.11328C 101.996 7.36328 101.301 6.98828 100.348 6.98828C 99.418 6.98828 98.7344 7.34375 98.2969 8.05469C 97.8594 8.75781 97.6289 9.85938 97.6055 11.3594L 97.6055 15.2266C 97.6055 16.8203 97.8281 18.0078 98.2734 18.7891C 98.7188 19.5703 99.418 19.9609 100.371 19.9609C 101.285 19.9609 101.961 19.6016 102.398 18.8828C 102.836 18.1562 103.066 17.0234 103.09 15.4844L 103.09 11.6289ZM 119.578 14.8164C 119.578 17.2695 119.117 19.1211 118.195 20.3711C 117.281 21.6133 115.887 22.2344 114.012 22.2344C 112.168 22.2344 110.777 21.6289 109.84 20.418C 108.91 19.1992 108.434 17.3984 108.41 15.0156L 108.41 12.0625C 108.41 9.60937 108.867 7.76953 109.781 6.54297C 110.703 5.31641 112.105 4.70312 113.988 4.70312C 115.855 4.70312 117.246 5.30078 118.16 6.49609C 119.082 7.69141 119.555 9.48047 119.578 11.8633L 119.578 14.8164ZM 116.73 11.6289C 116.73 10.0273 116.512 8.85547 116.074 8.11328C 115.637 7.36328 114.941 6.98828 113.988 6.98828C 113.059 6.98828 112.375 7.34375 111.938 8.05469C 111.5 8.75781 111.27 9.85938 111.246 11.3594L 111.246 15.2266C 111.246 16.8203 111.469 18.0078 111.914 18.7891C 112.359 19.5703 113.059 19.9609 114.012 19.9609C 114.926 19.9609 115.602 19.6016 116.039 18.8828C 116.477 18.1562 116.707 17.0234 116.73 15.4844L 116.73 11.6289ZM 133.781 15.8945L 127.629 15.8945L 127.629 13.5977L 133.781 13.5977L 133.781 15.8945ZM 153.398 22L 141.926 22L 141.926 20.043L 147.609 13.8438C 148.43 12.9297 149.012 12.168 149.355 11.5586C 149.707 10.9414 149.883 10.3242 149.883 9.70703C 149.883 8.89453 149.652 8.23828 149.191 7.73828C 148.738 7.23828 148.125 6.98828 147.352 6.98828C 146.43 6.98828 145.715 7.26953 145.207 7.83203C 144.699 8.39453 144.445 9.16406 144.445 10.1406L 141.598 10.1406C 141.598 9.10156 141.832 8.16797 142.301 7.33984C 142.777 6.50391 143.453 5.85547 144.328 5.39453C 145.211 4.93359 146.227 4.70312 147.375 4.70312C 149.031 4.70312 150.336 5.12109 151.289 5.95703C 152.25 6.78516 152.73 7.93359 152.73 9.40234C 152.73 10.2539 152.488 11.1484 152.004 12.0859C 151.527 13.0156 150.742 14.0742 149.648 15.2617L 145.477 19.7266L 153.398 19.7266L 153.398 22ZM 166.688 14.8164C 166.688 17.2695 166.227 19.1211 165.305 20.3711C 164.391 21.6133 162.996 22.2344 161.121 22.2344C 159.277 22.2344 157.887 21.6289 156.949 20.418C 156.02 19.1992 155.543 17.3984 155.52 15.0156L 155.52 12.0625C 155.52 9.60937 155.977 7.76953 156.891 6.54297C 157.812 5.31641 159.215 4.70312 161.098 4.70312C 162.965 4.70312 164.355 5.30078 165.27 6.49609C 166.191 7.69141 166.664 9.48047 166.688 11.8633L 166.688 14.8164ZM 163.84 11.6289C 163.84 10.0273 163.621 8.85547 163.184 8.11328C 162.746 7.36328 162.051 6.98828 161.098 6.98828C 160.168 6.98828 159.484 7.34375 159.047 8.05469C 158.609 8.75781 158.379 9.85938 158.355 11.3594L 158.355 15.2266C 158.355 16.8203 158.578 18.0078 159.023 18.7891C 159.469 19.5703 160.168 19.9609 161.121 19.9609C 162.035 19.9609 162.711 19.6016 163.148 18.8828C 163.586 18.1562 163.816 17.0234 163.84 15.4844L 163.84 11.6289Z"/>
<path id="path37_fill" d="M 6.2207 12L 4.80273 12L 4.80273 5.15039L 2.71094 5.86523L 2.71094 4.66406L 6.03906 3.43945L 6.2207 3.43945L 6.2207 12ZM 14.7461 8.4082C 14.7461 9.63477 14.5156 10.5605 14.0547 11.1855C 13.5977 11.8066 12.9004 12.1172 11.9629 12.1172C 11.041 12.1172 10.3457 11.8145 9.87695 11.209C 9.41211 10.5996 9.17383 9.69922 9.16211 8.50781L 9.16211 7.03125C 9.16211 5.80469 9.39062 4.88477 9.84766 4.27148C 10.3086 3.6582 11.0098 3.35156 11.9512 3.35156C 12.8848 3.35156 13.5801 3.65039 14.0371 4.24805C 14.498 4.8457 14.7344 5.74023 14.7461 6.93164L 14.7461 8.4082ZM 13.3223 6.81445C 13.3223 6.01367 13.2129 5.42773 12.9941 5.05664C 12.7754 4.68164 12.4277 4.49414 11.9512 4.49414C 11.4863 4.49414 11.1445 4.67188 10.9258 5.02734C 10.707 5.37891 10.5918 5.92969 10.5801 6.67969L 10.5801 8.61328C 10.5801 9.41016 10.6914 10.0039 10.9141 10.3945C 11.1367 10.7852 11.4863 10.9805 11.9629 10.9805C 12.4199 10.9805 12.7578 10.8008 12.9766 10.4414C 13.1953 10.0781 13.3105 9.51172 13.3223 8.74219L 13.3223 6.81445ZM 21.5664 8.4082C 21.5664 9.63477 21.3359 10.5605 20.875 11.1855C 20.418 11.8066 19.7207 12.1172 18.7832 12.1172C 17.8613 12.1172 17.166 11.8145 16.6973 11.209C 16.2324 10.5996 15.9941 9.69922 15.9824 8.50781L 15.9824 7.03125C 15.9824 5.80469 16.2109 4.88477 16.668 4.27148C 17.1289 3.6582 17.8301 3.35156 18.7715 3.35156C 19.7051 3.35156 20.4004 3.65039 20.8574 4.24805C 21.3184 4.8457 21.5547 5.74023 21.5664 6.93164L 21.5664 8.4082ZM 20.1426 6.81445C 20.1426 6.01367 20.0332 5.42773 19.8145 5.05664C 19.5957 4.68164 19.248 4.49414 18.7715 4.49414C 18.3066 4.49414 17.9648 4.67188 17.7461 5.02734C 17.5273 5.37891 17.4121 5.92969 17.4004 6.67969L 17.4004 8.61328C 17.4004 9.41016 17.5117 10.0039 17.7344 10.3945C 17.957 10.7852 18.3066 10.9805 18.7832 10.9805C 19.2402 10.9805 19.5781 10.8008 19.7969 10.4414C 20.0156 10.0781 20.1309 9.51172 20.1426 8.74219L 20.1426 6.81445ZM 22.7676 5.10938C 22.7676 4.59375 22.9336 4.17188 23.2656 3.84375C 23.5977 3.51172 24.0332 3.3457 24.5723 3.3457C 25.1191 3.3457 25.5566 3.51172 25.8848 3.84375C 26.2168 4.17188 26.3828 4.60352 26.3828 5.13867L 26.3828 5.56055C 26.3828 6.07227 26.2168 6.49219 25.8848 6.82031C 25.5566 7.14844 25.123 7.3125 24.584 7.3125C 24.0566 7.3125 23.6211 7.15234 23.2773 6.83203C 22.9375 6.50781 22.7676 6.07227 22.7676 5.52539L 22.7676 5.10938ZM 23.7637 5.56055C 23.7637 5.83008 23.8379 6.04883 23.9863 6.2168C 24.1387 6.38086 24.3379 6.46289 24.584 6.46289C 24.8262 6.46289 25.0215 6.38086 25.1699 6.2168C 25.3184 6.04883 25.3926 5.82227 25.3926 5.53711L 25.3926 5.10938C 25.3926 4.83984 25.3164 4.62109 25.1641 4.45312C 25.0156 4.28516 24.8184 4.20117 24.5723 4.20117C 24.3262 4.20117 24.1289 4.28711 23.9805 4.45898C 23.8359 4.62695 23.7637 4.84961 23.7637 5.12695L 23.7637 5.56055ZM 26.8691 9.9082C 26.8691 9.38477 27.0391 8.96094 27.3789 8.63672C 27.7188 8.3125 28.1523 8.15039 28.6797 8.15039C 29.2109 8.15039 29.6445 8.3125 29.9805 8.63672C 30.3203 8.96094 30.4902 9.39844 30.4902 9.94922L 30.4902 10.3652C 30.4902 10.873 30.3262 11.293 29.998 11.625C 29.6738 11.9531 29.2383 12.1172 28.6914 12.1172C 28.1445 12.1172 27.7031 11.9551 27.3672 11.6309C 27.0352 11.3027 26.8691 10.8711 26.8691 10.3359L 26.8691 9.9082ZM 27.8652 10.3652C 27.8652 10.6309 27.9414 10.8496 28.0938 11.0215C 28.25 11.1895 28.4492 11.2734 28.6914 11.2734C 28.9414 11.2734 29.1367 11.1934 29.2773 11.0332C 29.4219 10.8691 29.4941 10.6406 29.4941 10.3477L 29.4941 9.9082C 29.4941 9.63477 29.418 9.41602 29.2656 9.25195C 29.1133 9.08789 28.918 9.00586 28.6797 9.00586C 28.4375 9.00586 28.2402 9.08789 28.0879 9.25195C 27.9395 9.41602 27.8652 9.64258 27.8652 9.93164L 27.8652 10.3652ZM 24.877 11.3613L 24.1445 10.9395L 28.3105 4.27148L 29.043 4.69336L 24.877 11.3613Z"/>
<path id="path38_fill" fill-rule="evenodd" d="M 0.5 7.50848C 0.5 8.33063 1.17062 9 1.99672 9L 20.5033 9C 21.329 9 22 8.33118 22 7.50848L 22 1.99152C 22 1.16937 21.3294 0.5 20.5033 0.5L 1.99672 0.5C 1.17101 0.5 0.5 1.16882 0.5 1.99152L 0.5 7.50848ZM 1.99672 0L 20.5033 0C 21.606 0 22.5 0.893738 22.5 1.99152L 22.5 7.50848C 22.5 8.60837 21.6041 9.5 20.5033 9.5L 1.99672 9.5C 0.893963 9.5 0 8.60626 0 7.50848L 0 1.99152C 0 0.891632 0.895912 0 1.99672 0ZM 1 2C 1 1.44772 1.44772 1 2 1L 20.5 1C 21.0523 1 21.5 1.44772 21.5 2L 21.5 7.5C 21.5 8.05228 21.0523 8.5 20.5 8.5L 2 8.5C 1.44772 8.5 1 8.05228 1 7.5L 1 2ZM 23.5 3L 23 3L 23 6.5L 23.5 6.5C 24.0523 6.5 24.5 6.05228 24.5 5.5L 24.5 4C 24.5 3.44772 24.0523 3 23.5 3Z"/>
<path id="path39_fill" fill-rule="evenodd" d="M 7.95963 4.13582L 3.76101 0L 3.5 0L 3.5 5.7037L 0.811414 2.71903L 0 3.57957L 3.42857 7.00052L 0 10.4215L 0.811414 11.2815L 3.5 8.2963L 3.5 14L 3.84275 14L 8 9.85329L 5.1456 7.00052L 7.95963 4.13582ZM 4 5.7037L 4 2.59259L 5.77338 4.14815L 4 5.7037ZM 4 8.2963L 5.79419 9.85185L 4 11.4074L 4 8.2963Z"/>
<path id="path40_fill" fill-rule="evenodd" d="M 5.99612 1.5137C 7.93588 1.5137 9.70425 2.22479 11.0593 3.39133L 12 2.35657C 10.3946 0.969818 8.2977 0 5.99576 0C 3.69766 0 1.60352 0.967194 0 2.35022L 0.939117 3.38574C 2.29382 2.2222 4.05908 1.5137 5.99612 1.5137ZM 5.91525 5.97263C 5.13672 5.97263 4.42358 6.28918 3.86948 6.7457L 5.91525 9L 7.96338 6.74796C 7.40887 6.29028 6.69534 5.97263 5.91525 5.97263ZM 9.01315 5.612C 8.19397 4.92068 7.13181 4.5 5.96902 4.5C 4.8082 4.5 3.74756 4.91882 2.92917 5.60904L 1.93472 4.51266C 3.01779 3.58954 4.42587 2.9863 5.96942 2.9863C 7.51566 2.9863 8.92569 3.5914 10.0092 4.51715L 9.01315 5.612Z"/>
<path id="path41_fill" d="M 3.87305 10.1426L 6.04102 3.46875L 7.66992 3.46875L 4.59961 12L 3.16406 12L 0.105469 3.46875L 1.72852 3.46875L 3.87305 10.1426ZM 10.0137 12L 8.58984 12L 8.58984 5.66016L 10.0137 5.66016L 10.0137 12ZM 8.50195 4.01367C 8.50195 3.79492 8.57031 3.61328 8.70703 3.46875C 8.84766 3.32422 9.04688 3.25195 9.30469 3.25195C 9.5625 3.25195 9.76172 3.32422 9.90234 3.46875C 10.043 3.61328 10.1133 3.79492 10.1133 4.01367C 10.1133 4.22852 10.043 4.4082 9.90234 4.55273C 9.76172 4.69336 9.5625 4.76367 9.30469 4.76367C 9.04688 4.76367 8.84766 4.69336 8.70703 4.55273C 8.57031 4.4082 8.50195 4.22852 8.50195 4.01367ZM 14.8887 6.96094C 14.7012 6.92969 14.5078 6.91406 14.3086 6.91406C 13.6562 6.91406 13.2168 7.16406 12.9902 7.66406L 12.9902 12L 11.5664 12L 11.5664 5.66016L 12.9258 5.66016L 12.9609 6.36914C 13.3047 5.81836 13.7812 5.54297 14.3906 5.54297C 14.5938 5.54297 14.7617 5.57031 14.8945 5.625L 14.8887 6.96094ZM 15.4219 8.7832C 15.4219 7.79883 15.6523 7.01367 16.1133 6.42773C 16.5781 5.83789 17.1934 5.54297 17.959 5.54297C 18.6816 5.54297 19.25 5.79492 19.6641 6.29883L 19.7285 5.66016L 21.0117 5.66016L 21.0117 11.8066C 21.0117 12.6387 20.752 13.2949 20.2324 13.7754C 19.7168 14.2559 19.0195 14.4961 18.1406 14.4961C 17.6758 14.4961 17.2207 14.3984 16.7754 14.2031C 16.334 14.0117 15.998 13.7598 15.7676 13.4473L 16.4414 12.5918C 16.8789 13.1113 17.418 13.3711 18.0586 13.3711C 18.5313 13.3711 18.9043 13.2422 19.1777 12.9844C 19.4512 12.7305 19.5879 12.3555 19.5879 11.8594L 19.5879 11.4316C 19.1777 11.8887 18.6309 12.1172 17.9473 12.1172C 17.2051 12.1172 16.5977 11.8223 16.125 11.2324C 15.6562 10.6426 15.4219 9.82617 15.4219 8.7832ZM 16.8398 8.90625C 16.8398 9.54297 16.9688 10.0449 17.2266 10.4121C 17.4883 10.7754 17.8496 10.957 18.3105 10.957C 18.8848 10.957 19.3105 10.7109 19.5879 10.2188L 19.5879 7.42969C 19.3184 6.94922 18.8965 6.70898 18.3223 6.70898C 17.8535 6.70898 17.4883 6.89453 17.2266 7.26562C 16.9688 7.63672 16.8398 8.18359 16.8398 8.90625ZM 23.9941 12L 22.5703 12L 22.5703 5.66016L 23.9941 5.66016L 23.9941 12ZM 22.4824 4.01367C 22.4824 3.79492 22.5508 3.61328 22.6875 3.46875C 22.8281 3.32422 23.0273 3.25195 23.2852 3.25195C 23.543 3.25195 23.7422 3.32422 23.8828 3.46875C 24.0234 3.61328 24.0938 3.79492 24.0938 4.01367C 24.0938 4.22852 24.0234 4.4082 23.8828 4.55273C 23.7422 4.69336 23.543 4.76367 23.2852 4.76367C 23.0273 4.76367 22.8281 4.69336 22.6875 4.55273C 22.5508 4.4082 22.4824 4.22852 22.4824 4.01367ZM 26.8711 5.66016L 26.9121 6.39258C 27.3809 5.82617 27.9961 5.54297 28.7578 5.54297C 30.0781 5.54297 30.75 6.29883 30.7734 7.81055L 30.7734 12L 29.3496 12L 29.3496 7.89258C 29.3496 7.49023 29.2617 7.19336 29.0859 7.00195C 28.9141 6.80664 28.6309 6.70898 28.2363 6.70898C 27.6621 6.70898 27.2344 6.96875 26.9531 7.48828L 26.9531 12L 25.5293 12L 25.5293 5.66016L 26.8711 5.66016Z"/>
<path id="path42_fill" d="M 6.10547 8.43164C 5.62891 8.93555 5.07227 9.1875 4.43555 9.1875C 3.68555 9.1875 3.08789 8.92578 2.64258 8.40234C 2.19727 7.875 1.97461 7.18359 1.97461 6.32812C 1.97461 5.76562 2.08789 5.25586 2.31445 4.79883C 2.54102 4.3418 2.86328 3.98633 3.28125 3.73242C 3.69922 3.47852 4.18359 3.35156 4.73438 3.35156C 5.59375 3.35156 6.27539 3.67187 6.7793 4.3125C 7.2832 4.95313 7.53516 5.81055 7.53516 6.88477L 7.53516 7.2832C 7.53516 8.82227 7.1875 9.99609 6.49219 10.8047C 5.79687 11.6133 4.75977 12.0234 3.38086 12.0352L 3.21094 12.0352L 3.21094 10.8574L 3.41602 10.8574C 4.25586 10.8457 4.90039 10.6445 5.34961 10.2539C 5.79883 9.85937 6.05078 9.25195 6.10547 8.43164ZM 4.73438 8.07422C 5.01953 8.07422 5.28711 7.99219 5.53711 7.82812C 5.78711 7.66406 5.98047 7.4375 6.11719 7.14844L 6.11719 6.5918C 6.11719 5.96289 5.98828 5.45703 5.73047 5.07422C 5.47266 4.69141 5.13867 4.5 4.72852 4.5C 4.31836 4.5 3.99023 4.66992 3.74414 5.00977C 3.50195 5.3457 3.38086 5.77148 3.38086 6.28711C 3.38086 6.82227 3.50391 7.25391 3.75 7.58203C 3.99609 7.91016 4.32422 8.07422 4.73438 8.07422ZM 9.83789 10.5C 10.1035 10.5 10.3086 10.5762 10.4531 10.7285C 10.5977 10.877 10.6699 11.0645 10.6699 11.291C 10.6699 11.5137 10.5977 11.6992 10.4531 11.8477C 10.3086 11.9922 10.1035 12.0645 9.83789 12.0645C 9.58398 12.0645 9.38281 11.9922 9.23438 11.8477C 9.08594 11.7031 9.01172 11.5176 9.01172 11.291C 9.01172 11.0645 9.08398 10.877 9.22852 10.7285C 9.37305 10.5762 9.57617 10.5 9.83789 10.5ZM 9.83789 5.52539C 10.1035 5.52539 10.3086 5.60156 10.4531 5.75391C 10.5977 5.90234 10.6699 6.08984 10.6699 6.31641C 10.6699 6.53906 10.5977 6.72461 10.4531 6.87305C 10.3086 7.01758 10.1035 7.08984 9.83789 7.08984C 9.58398 7.08984 9.38281 7.01758 9.23438 6.87305C 9.08594 6.72852 9.01172 6.54297 9.01172 6.31641C 9.01172 6.08984 9.08398 5.90234 9.22852 5.75391C 9.37305 5.60156 9.57617 5.52539 9.83789 5.52539ZM 13.7227 7.08398L 14.5898 7.08398C 15.0273 7.08008 15.373 6.9668 15.627 6.74414C 15.8848 6.52148 16.0137 6.19922 16.0137 5.77734C 16.0137 5.37109 15.9063 5.05664 15.6914 4.83398C 15.4805 4.60742 15.1563 4.49414 14.7188 4.49414C 14.3359 4.49414 14.0215 4.60547 13.7754 4.82812C 13.5293 5.04688 13.4062 5.33398 13.4062 5.68945L 11.9824 5.68945C 11.9824 5.25195 12.0977 4.85352 12.3281 4.49414C 12.5625 4.13477 12.8867 3.85547 13.3008 3.65625C 13.7188 3.45313 14.1855 3.35156 14.7012 3.35156C 15.5527 3.35156 16.2207 3.56641 16.7051 3.99609C 17.1934 4.42187 17.4375 5.01562 17.4375 5.77734C 17.4375 6.16016 17.3145 6.52148 17.0684 6.86133C 16.8262 7.19727 16.5117 7.45117 16.125 7.62305C 16.5938 7.7832 16.9492 8.03516 17.1914 8.37891C 17.4375 8.72266 17.5605 9.13281 17.5605 9.60938C 17.5605 10.375 17.2969 10.9844 16.7695 11.4375C 16.2461 11.8906 15.5566 12.1172 14.7012 12.1172C 13.8809 12.1172 13.209 11.8984 12.6855 11.4609C 12.1621 11.0234 11.9004 10.4414 11.9004 9.71484L 13.3242 9.71484C 13.3242 10.0898 13.4492 10.3945 13.6992 10.6289C 13.9531 10.8633 14.293 10.9805 14.7188 10.9805C 15.1602 10.9805 15.5078 10.8633 15.7617 10.6289C 16.0156 10.3945 16.1426 10.0547 16.1426 9.60938C 16.1426 9.16016 16.0098 8.81445 15.7441 8.57227C 15.4785 8.33008 15.084 8.20898 14.5605 8.20898L 13.7227 8.20898L 13.7227 7.08398ZM 24.457 8.4082C 24.457 9.63477 24.2266 10.5605 23.7656 11.1855C 23.3086 11.8066 22.6113 12.1172 21.6738 12.1172C 20.752 12.1172 20.0566 11.8145 19.5879 11.209C 19.123 10.5996 18.8848 9.69922 18.873 8.50781L 18.873 7.03125C 18.873 5.80469 19.1016 4.88477 19.5586 4.27148C 20.0195 3.6582 20.7207 3.35156 21.6621 3.35156C 22.5957 3.35156 23.291 3.65039 23.748 4.24805C 24.209 4.8457 24.4453 5.74023 24.457 6.93164L 24.457 8.4082ZM 23.0332 6.81445C 23.0332 6.01367 22.9238 5.42773 22.7051 5.05664C 22.4863 4.68164 22.1387 4.49414 21.6621 4.49414C 21.1973 4.49414 20.8555 4.67188 20.6367 5.02734C 20.418 5.37891 20.3027 5.92969 20.291 6.67969L 20.291 8.61328C 20.291 9.41016 20.4023 10.0039 20.625 10.3945C 20.8477 10.7852 21.1973 10.9805 21.6738 10.9805C 22.1309 10.9805 22.4688 10.8008 22.6875 10.4414C 22.9062 10.0781 23.0215 9.51172 23.0332 8.74219L 23.0332 6.81445ZM 33.709 10.0137L 30.4043 10.0137L 29.7129 12L 28.1719 12L 31.3945 3.46875L 32.7246 3.46875L 35.9531 12L 34.4062 12L 33.709 10.0137ZM 30.8203 8.81836L 33.293 8.81836L 32.0566 5.2793L 30.8203 8.81836ZM 38.8477 3.46875L 41.3086 10.0078L 43.7637 3.46875L 45.6797 3.46875L 45.6797 12L 44.2031 12L 44.2031 9.1875L 44.3496 5.42578L 41.8301 12L 40.7695 12L 38.2559 5.43164L 38.4023 9.1875L 38.4023 12L 36.9258 12L 36.9258 3.46875L 38.8477 3.46875Z"/>
<path id="path43_fill" fill-rule="evenodd" d="M 5.5 2.75C 5.5 4.26877 4.26877 5.5 2.75 5.5C 1.23123 5.5 0 4.26877 0 2.75C 0 1.23123 1.23123 0 2.75 0C 4.26877 0 5.5 1.23123 5.5 2.75ZM 9.75 5.5C 11.2688 5.5 12.5 4.26877 12.5 2.75C 12.5 1.23123 11.2688 0 9.75 0C 8.23123 0 7 1.23123 7 2.75C 7 4.26877 8.23123 5.5 9.75 5.5ZM 19.5 2.75C 19.5 4.26877 18.2688 5.5 16.75 5.5C 15.2312 5.5 14 4.26877 14 2.75C 14 1.23123 15.2312 0 16.75 0C 18.2688 0 19.5 1.23123 19.5 2.75ZM 23.75 5.5C 25.2688 5.5 26.5 4.26877 26.5 2.75C 26.5 1.23123 25.2688 0 23.75 0C 22.2312 0 21 1.23123 21 2.75C 21 4.26877 22.2312 5.5 23.75 5.5ZM 33 2.75C 33 1.50735 31.9926 0.5 30.75 0.5C 29.5074 0.5 28.5 1.50735 28.5 2.75C 28.5 3.99265 29.5074 5 30.75 5C 31.9926 5 33 3.99265 33 2.75ZM 28 2.75C 28 1.23123 29.2312 0 30.75 0C 32.2688 0 33.5 1.23123 33.5 2.75C 33.5 4.26877 32.2688 5.5 30.75 5.5C 29.2312 5.5 28 4.26877 28 2.75Z"/>
</defs>
</svg>
